<?xml version="1.0" encoding="utf-8" standalone="no"?>
<!DOCTYPE svg PUBLIC "-//W3C//DTD SVG 1.1//EN"
  "http://www.w3.org/Graphics/SVG/1.1/DTD/svg11.dtd">
<svg xmlns:xlink="http://www.w3.org/1999/xlink" width="576pt" height="444.24pt" viewBox="0 0 576 444.24" xmlns="http://www.w3.org/2000/svg" version="1.1">
 <metadata>
  <rdf:RDF xmlns:dc="http://purl.org/dc/elements/1.1/" xmlns:cc="http://creativecommons.org/ns#" xmlns:rdf="http://www.w3.org/1999/02/22-rdf-syntax-ns#">
   <cc:Work>
    <dc:type rdf:resource="http://purl.org/dc/dcmitype/StillImage"/>
    <dc:date>2023-05-31T01:08:05.235962</dc:date>
    <dc:format>image/svg+xml</dc:format>
    <dc:creator>
     <cc:Agent>
      <dc:title>Matplotlib v3.5.2, https://matplotlib.org/</dc:title>
     </cc:Agent>
    </dc:creator>
   </cc:Work>
  </rdf:RDF>
 </metadata>
 <defs>
  <style type="text/css">*{stroke-linejoin: round; stroke-linecap: butt}</style>
 </defs>
 <g id="figure_1">
  <g id="patch_1">
   <path d="M 0 444.24 
L 576 444.24 
L 576 0 
L 0 0 
z
" style="fill: #ffffff"/>
  </g>
  <g id="axes_1">
   <g id="patch_2">
    <path d="M 295.82172 68.8572 
C 260.020635 68.8572 225.297622 81.235507 197.569965 103.882687 
C 169.842308 126.529866 150.779924 158.081975 143.631308 193.162097 
L 295.82172 224.175413 
L 295.82172 68.8572 
z
" style="fill: #ff9999"/>
   </g>
   <g id="patch_3">
    <path d="M 143.631308 193.162097 
C 138.83549 216.696423 139.563328 241.025539 145.757432 264.231086 
C 151.951536 287.436634 163.44471 308.892229 179.330712 326.906093 
L 295.82172 224.175413 
L 143.631308 193.162097 
z
" style="fill: #66b3ff"/>
   </g>
   <g id="patch_4">
    <path d="M 179.330712 326.906093 
C 194.176052 343.739901 212.495412 357.157499 233.023675 366.232278 
C 253.551938 375.307058 275.805416 379.8252 298.247304 379.474685 
L 295.82172 224.175413 
L 179.330712 326.906093 
z
" style="fill: #99ff99"/>
   </g>
   <g id="patch_5">
    <path d="M 298.247304 379.474685 
C 317.657931 379.171515 336.840773 375.231856 354.799733 367.860281 
C 372.758693 360.488706 389.177448 349.815055 403.203431 336.393574 
L 295.82172 224.175413 
L 298.247304 379.474685 
z
" style="fill: #ffcc99"/>
   </g>
   <g id="patch_6">
    <path d="M 403.203431 336.393574 
C 412.835448 327.176683 421.240838 316.757912 428.212108 305.394453 
C 435.183379 294.030994 440.662691 281.817128 444.514784 269.054362 
L 295.82172 224.175413 
L 403.203431 336.393574 
z
" style="fill: #c2c2f0"/>
   </g>
   <g id="patch_7">
    <path d="M 444.514784 269.054362 
C 447.837589 258.045234 449.927479 246.701051 450.745994 235.230569 
C 451.56451 223.760087 451.106601 212.234097 449.380692 200.864701 
L 295.82172 224.175413 
L 444.514784 269.054362 
z
" style="fill: #ffb3e6"/>
   </g>
   <g id="patch_8">
    <path d="M 449.380692 200.864701 
C 447.72462 189.955347 444.910696 179.253467 440.986616 168.940457 
C 437.062536 158.627448 432.050597 148.761908 426.035753 139.511058 
L 295.82172 224.175413 
L 449.380692 200.864701 
z
" style="fill: #c2c2f0"/>
   </g>
   <g id="patch_9">
    <path d="M 426.035753 139.511058 
C 420.255708 130.621333 413.580474 122.346836 406.114573 114.817131 
C 398.648672 107.287427 390.431277 100.542023 381.591059 94.686542 
L 295.82172 224.175413 
L 426.035753 139.511058 
z
" style="fill: #d279a6"/>
   </g>
   <g id="patch_10">
    <path d="M 381.591059 94.686542 
C 374.9686 90.300034 368.01938 86.428023 360.804586 83.1046 
C 353.589792 79.781176 346.130661 77.016125 338.492872 74.833791 
L 295.82172 224.175413 
L 381.591059 94.686542 
z
" style="fill: #e6ac00"/>
   </g>
   <g id="patch_11">
    <path d="M 338.492872 74.833791 
C 331.5628 72.853672 324.503296 71.358329 317.365556 70.358605 
C 310.227816 69.358881 303.029138 68.8572 295.821727 68.8572 
L 295.82172 224.175413 
L 338.492872 74.833791 
z
" style="fill: #66cc99"/>
   </g>
   <g id="matplotlib.axis_1"/>
   <g id="matplotlib.axis_2"/>
   <g id="text_1">
    <!-- Cluster 1 -->
    <g transform="translate(156.221821 93.784976)scale(0.07 -0.07)">
     <defs>
      <path id="DejaVuSans-Oblique-43" d="M 4447 4306 
L 4319 3641 
Q 4019 3944 3683 4091 
Q 3347 4238 2956 4238 
Q 2422 4238 2017 3981 
Q 1613 3725 1319 3200 
Q 1131 2863 1032 2486 
Q 934 2109 934 1728 
Q 934 1091 1264 756 
Q 1594 422 2222 422 
Q 2656 422 3056 561 
Q 3456 700 3834 978 
L 3688 231 
Q 3316 72 2936 -9 
Q 2556 -91 2175 -91 
Q 1278 -91 773 396 
Q 269 884 269 1753 
Q 269 2309 461 2846 
Q 653 3384 1013 3828 
Q 1394 4300 1883 4525 
Q 2372 4750 3022 4750 
Q 3422 4750 3780 4639 
Q 4138 4528 4447 4306 
z
" transform="scale(0.015625)"/>
      <path id="DejaVuSans-Oblique-6c" d="M 1172 4863 
L 1747 4863 
L 800 0 
L 225 0 
L 1172 4863 
z
" transform="scale(0.015625)"/>
      <path id="DejaVuSans-Oblique-75" d="M 428 1388 
L 838 3500 
L 1416 3500 
L 1006 1409 
Q 975 1256 961 1147 
Q 947 1038 947 966 
Q 947 700 1109 554 
Q 1272 409 1569 409 
Q 2031 409 2368 721 
Q 2706 1034 2809 1563 
L 3194 3500 
L 3769 3500 
L 3091 0 
L 2516 0 
L 2631 550 
Q 2388 244 2052 76 
Q 1716 -91 1338 -91 
Q 878 -91 622 161 
Q 366 413 366 863 
Q 366 956 381 1097 
Q 397 1238 428 1388 
z
" transform="scale(0.015625)"/>
      <path id="DejaVuSans-Oblique-73" d="M 3200 3397 
L 3091 2853 
Q 2863 2978 2609 3040 
Q 2356 3103 2088 3103 
Q 1634 3103 1373 2948 
Q 1113 2794 1113 2528 
Q 1113 2219 1719 2053 
Q 1766 2041 1788 2034 
L 1972 1978 
Q 2547 1819 2739 1644 
Q 2931 1469 2931 1166 
Q 2931 609 2489 259 
Q 2047 -91 1331 -91 
Q 1053 -91 747 -37 
Q 441 16 72 128 
L 184 722 
Q 500 559 806 475 
Q 1113 391 1394 391 
Q 1816 391 2080 572 
Q 2344 753 2344 1031 
Q 2344 1331 1650 1516 
L 1591 1531 
L 1394 1581 
Q 956 1697 753 1886 
Q 550 2075 550 2369 
Q 550 2928 970 3256 
Q 1391 3584 2113 3584 
Q 2397 3584 2667 3537 
Q 2938 3491 3200 3397 
z
" transform="scale(0.015625)"/>
      <path id="DejaVuSans-Oblique-74" d="M 2706 3500 
L 2619 3053 
L 1472 3053 
L 1100 1153 
Q 1081 1047 1072 975 
Q 1063 903 1063 863 
Q 1063 663 1183 572 
Q 1303 481 1569 481 
L 2150 481 
L 2053 0 
L 1503 0 
Q 991 0 739 200 
Q 488 400 488 806 
Q 488 878 497 964 
Q 506 1050 525 1153 
L 897 3053 
L 409 3053 
L 500 3500 
L 978 3500 
L 1172 4494 
L 1747 4494 
L 1556 3500 
L 2706 3500 
z
" transform="scale(0.015625)"/>
      <path id="DejaVuSans-Oblique-65" d="M 3078 2063 
Q 3088 2113 3092 2166 
Q 3097 2219 3097 2272 
Q 3097 2653 2873 2875 
Q 2650 3097 2266 3097 
Q 1838 3097 1509 2826 
Q 1181 2556 1013 2059 
L 3078 2063 
z
M 3578 1613 
L 903 1613 
Q 884 1494 878 1425 
Q 872 1356 872 1306 
Q 872 872 1139 634 
Q 1406 397 1894 397 
Q 2269 397 2603 481 
Q 2938 566 3225 728 
L 3116 159 
Q 2806 34 2476 -28 
Q 2147 -91 1806 -91 
Q 1078 -91 686 257 
Q 294 606 294 1247 
Q 294 1794 489 2264 
Q 684 2734 1063 3103 
Q 1306 3334 1642 3459 
Q 1978 3584 2356 3584 
Q 2950 3584 3301 3228 
Q 3653 2872 3653 2272 
Q 3653 2128 3634 1964 
Q 3616 1800 3578 1613 
z
" transform="scale(0.015625)"/>
      <path id="DejaVuSans-Oblique-72" d="M 2853 2969 
Q 2766 3016 2653 3041 
Q 2541 3066 2413 3066 
Q 1953 3066 1609 2717 
Q 1266 2369 1153 1784 
L 800 0 
L 225 0 
L 909 3500 
L 1484 3500 
L 1375 2956 
Q 1603 3259 1920 3421 
Q 2238 3584 2597 3584 
Q 2691 3584 2781 3573 
Q 2872 3563 2963 3538 
L 2853 2969 
z
" transform="scale(0.015625)"/>
      <path id="DejaVuSans-Oblique-20" transform="scale(0.015625)"/>
      <path id="DejaVuSans-Oblique-31" d="M 416 531 
L 1447 531 
L 2144 4122 
L 978 3897 
L 1088 4441 
L 2247 4666 
L 2881 4666 
L 2075 531 
L 3103 531 
L 3003 0 
L 313 0 
L 416 531 
z
" transform="scale(0.015625)"/>
     </defs>
     <use xlink:href="#DejaVuSans-Oblique-43"/>
     <use xlink:href="#DejaVuSans-Oblique-6c" x="69.824219"/>
     <use xlink:href="#DejaVuSans-Oblique-75" x="97.607422"/>
     <use xlink:href="#DejaVuSans-Oblique-73" x="160.986328"/>
     <use xlink:href="#DejaVuSans-Oblique-74" x="213.085938"/>
     <use xlink:href="#DejaVuSans-Oblique-65" x="252.294922"/>
     <use xlink:href="#DejaVuSans-Oblique-72" x="313.818359"/>
     <use xlink:href="#DejaVuSans-Oblique-20" x="354.931641"/>
     <use xlink:href="#DejaVuSans-Oblique-31" x="386.71875"/>
    </g>
   </g>
   <g id="text_2">
    <!-- 21.80% -->
    <g transform="translate(222.293167 153.93134)scale(0.07 -0.07)">
     <defs>
      <path id="DejaVuSans-BoldOblique-32" d="M 1581 884 
L 3609 884 
L 3438 0 
L 50 0 
L 225 891 
L 2209 2388 
Q 2534 2638 2704 2894 
Q 2875 3150 2875 3391 
Q 2875 3647 2700 3787 
Q 2525 3928 2209 3928 
Q 1913 3928 1547 3811 
Q 1181 3694 722 3450 
L 922 4441 
Q 1347 4597 1756 4673 
Q 2166 4750 2566 4750 
Q 3278 4750 3687 4442 
Q 4097 4134 4097 3603 
Q 4097 3147 3847 2772 
Q 3597 2397 2747 1759 
L 1581 884 
z
" transform="scale(0.015625)"/>
      <path id="DejaVuSans-BoldOblique-31" d="M 441 831 
L 1503 831 
L 2088 3847 
L 953 3622 
L 1113 4441 
L 2241 4666 
L 3384 4666 
L 2644 831 
L 3700 831 
L 3541 0 
L 275 0 
L 441 831 
z
" transform="scale(0.015625)"/>
      <path id="DejaVuSans-BoldOblique-2e" d="M 531 1209 
L 1656 1209 
L 1422 0 
L 294 0 
L 531 1209 
z
" transform="scale(0.015625)"/>
      <path id="DejaVuSans-BoldOblique-38" d="M 2150 2088 
Q 1784 2088 1539 1839 
Q 1294 1591 1294 1228 
Q 1294 969 1453 817 
Q 1613 666 1888 666 
Q 2259 666 2503 911 
Q 2747 1156 2747 1522 
Q 2747 1781 2586 1934 
Q 2425 2088 2150 2088 
z
M 1381 2484 
Q 1044 2625 876 2850 
Q 709 3075 709 3391 
Q 709 4025 1229 4387 
Q 1750 4750 2669 4750 
Q 3406 4750 3812 4475 
Q 4219 4200 4219 3700 
Q 4219 3256 3936 2940 
Q 3653 2625 3128 2484 
Q 3509 2338 3690 2091 
Q 3872 1844 3872 1466 
Q 3872 747 3311 328 
Q 2750 -91 1772 -91 
Q 1000 -91 570 217 
Q 141 525 141 1075 
Q 141 1572 470 1945 
Q 800 2319 1381 2484 
z
M 2559 3994 
Q 2241 3994 2048 3808 
Q 1856 3622 1856 3316 
Q 1856 3103 1995 2972 
Q 2134 2841 2363 2841 
Q 2681 2841 2873 3027 
Q 3066 3213 3066 3519 
Q 3066 3734 2927 3864 
Q 2788 3994 2559 3994 
z
" transform="scale(0.015625)"/>
      <path id="DejaVuSans-BoldOblique-30" d="M 1913 728 
Q 2153 728 2339 872 
Q 2525 1016 2650 1294 
Q 2738 1491 2809 1742 
Q 2881 1994 2944 2338 
Q 2997 2616 3025 2850 
Q 3053 3084 3053 3250 
Q 3053 3600 2928 3764 
Q 2803 3928 2541 3928 
Q 2297 3928 2112 3789 
Q 1928 3650 1806 3366 
Q 1713 3163 1636 2903 
Q 1559 2644 1503 2338 
Q 1450 2056 1422 1815 
Q 1394 1575 1394 1409 
Q 1394 1063 1522 895 
Q 1650 728 1913 728 
z
M 4225 3072 
Q 4225 2450 4053 1862 
Q 3881 1275 3572 831 
Q 3256 375 2809 142 
Q 2363 -91 1813 -91 
Q 1047 -91 639 343 
Q 231 778 231 1594 
Q 231 2206 401 2795 
Q 572 3384 878 3822 
Q 1200 4281 1644 4515 
Q 2088 4750 2644 4750 
Q 3403 4750 3814 4314 
Q 4225 3878 4225 3072 
z
" transform="scale(0.015625)"/>
      <path id="DejaVuSans-BoldOblique-25" d="M 4891 1925 
Q 4622 1925 4448 1662 
Q 4275 1400 4275 984 
Q 4275 713 4370 577 
Q 4466 441 4659 441 
Q 4931 441 5103 703 
Q 5275 966 5275 1388 
Q 5275 1653 5176 1789 
Q 5078 1925 4891 1925 
z
M 4978 2450 
Q 5469 2450 5764 2183 
Q 6059 1916 6059 1478 
Q 6059 778 5645 343 
Q 5231 -91 4563 -91 
Q 4072 -91 3776 179 
Q 3481 450 3481 891 
Q 3481 1584 3895 2017 
Q 4309 2450 4978 2450 
z
M 1663 -91 
L 897 -91 
L 4756 4750 
L 5522 4750 
L 1663 -91 
z
M 1856 4750 
Q 2344 4750 2641 4481 
Q 2938 4213 2938 3775 
Q 2938 3078 2520 2643 
Q 2103 2209 1434 2209 
Q 944 2209 648 2475 
Q 353 2741 353 3181 
Q 353 3875 770 4312 
Q 1188 4750 1856 4750 
z
M 1759 4225 
Q 1491 4225 1319 3961 
Q 1147 3697 1147 3284 
Q 1147 3009 1242 2870 
Q 1338 2731 1528 2731 
Q 1800 2731 1972 2997 
Q 2144 3263 2144 3688 
Q 2144 3950 2045 4087 
Q 1947 4225 1759 4225 
z
" transform="scale(0.015625)"/>
     </defs>
     <use xlink:href="#DejaVuSans-BoldOblique-32"/>
     <use xlink:href="#DejaVuSans-BoldOblique-31" x="69.580078"/>
     <use xlink:href="#DejaVuSans-BoldOblique-2e" x="139.160156"/>
     <use xlink:href="#DejaVuSans-BoldOblique-38" x="177.148438"/>
     <use xlink:href="#DejaVuSans-BoldOblique-30" x="246.728516"/>
     <use xlink:href="#DejaVuSans-BoldOblique-25" x="316.308594"/>
    </g>
   </g>
   <g id="text_3">
    <!-- Cluster 2 -->
    <g transform="translate(99.228035 270.168216)scale(0.07 -0.07)">
     <defs>
      <path id="DejaVuSans-Oblique-32" d="M 2950 2253 
L 934 525 
L 3163 525 
L 3053 0 
L 25 0 
L 128 531 
L 2234 2338 
Q 2656 2703 2832 2979 
Q 3009 3256 3009 3547 
Q 3009 3850 2796 4040 
Q 2584 4231 2241 4231 
Q 1944 4231 1581 4125 
Q 1219 4019 806 3816 
L 922 4441 
Q 1309 4594 1662 4672 
Q 2016 4750 2316 4750 
Q 2928 4750 3301 4425 
Q 3675 4100 3675 3572 
Q 3675 3216 3497 2892 
Q 3319 2569 2950 2253 
z
" transform="scale(0.015625)"/>
     </defs>
     <use xlink:href="#DejaVuSans-Oblique-43"/>
     <use xlink:href="#DejaVuSans-Oblique-6c" x="69.824219"/>
     <use xlink:href="#DejaVuSans-Oblique-75" x="97.607422"/>
     <use xlink:href="#DejaVuSans-Oblique-73" x="160.986328"/>
     <use xlink:href="#DejaVuSans-Oblique-74" x="213.085938"/>
     <use xlink:href="#DejaVuSans-Oblique-65" x="252.294922"/>
     <use xlink:href="#DejaVuSans-Oblique-72" x="313.818359"/>
     <use xlink:href="#DejaVuSans-Oblique-20" x="354.931641"/>
     <use xlink:href="#DejaVuSans-Oblique-32" x="386.71875"/>
    </g>
   </g>
   <g id="text_4">
    <!-- 14.70% -->
    <g transform="translate(191.205647 250.14038)scale(0.07 -0.07)">
     <defs>
      <path id="DejaVuSans-BoldOblique-34" d="M 2638 3641 
L 978 1722 
L 2259 1722 
L 2638 3641 
z
M 2606 4666 
L 3975 4666 
L 3397 1722 
L 4063 1722 
L 3897 850 
L 3231 850 
L 3066 0 
L 1925 0 
L 2094 850 
L -6 850 
L 197 1881 
L 2606 4666 
z
" transform="scale(0.015625)"/>
      <path id="DejaVuSans-BoldOblique-37" d="M 922 4666 
L 4441 4666 
L 4300 3981 
L 1703 0 
L 500 0 
L 2969 3781 
L 756 3781 
L 922 4666 
z
" transform="scale(0.015625)"/>
     </defs>
     <use xlink:href="#DejaVuSans-BoldOblique-31"/>
     <use xlink:href="#DejaVuSans-BoldOblique-34" x="69.580078"/>
     <use xlink:href="#DejaVuSans-BoldOblique-2e" x="139.160156"/>
     <use xlink:href="#DejaVuSans-BoldOblique-37" x="177.148438"/>
     <use xlink:href="#DejaVuSans-BoldOblique-30" x="246.728516"/>
     <use xlink:href="#DejaVuSans-BoldOblique-25" x="316.308594"/>
    </g>
   </g>
   <g id="text_5">
    <!-- Cluster 3 -->
    <g transform="translate(195.220902 382.369527)scale(0.07 -0.07)">
     <defs>
      <path id="DejaVuSans-Oblique-33" d="M 1013 4550 
Q 1356 4650 1679 4700 
Q 2003 4750 2316 4750 
Q 2934 4750 3296 4475 
Q 3659 4200 3659 3738 
Q 3659 3284 3373 2959 
Q 3088 2634 2584 2516 
Q 2978 2403 3162 2165 
Q 3347 1928 3347 1538 
Q 3347 1163 3167 834 
Q 2988 506 2650 269 
Q 2394 88 2037 -1 
Q 1681 -91 1216 -91 
Q 922 -91 622 -33 
Q 322 25 13 141 
L 128 738 
Q 422 575 720 495 
Q 1019 416 1331 416 
Q 1947 416 2330 733 
Q 2713 1050 2713 1556 
Q 2713 1881 2469 2057 
Q 2225 2234 1772 2234 
L 1228 2234 
L 1325 2747 
L 1900 2747 
Q 2419 2747 2717 2984 
Q 3016 3222 3016 3628 
Q 3016 3922 2797 4083 
Q 2578 4244 2181 4244 
Q 1881 4244 1567 4180 
Q 1253 4116 916 3988 
L 1013 4550 
z
" transform="scale(0.015625)"/>
     </defs>
     <use xlink:href="#DejaVuSans-Oblique-43"/>
     <use xlink:href="#DejaVuSans-Oblique-6c" x="69.824219"/>
     <use xlink:href="#DejaVuSans-Oblique-75" x="97.607422"/>
     <use xlink:href="#DejaVuSans-Oblique-73" x="160.986328"/>
     <use xlink:href="#DejaVuSans-Oblique-74" x="213.085938"/>
     <use xlink:href="#DejaVuSans-Oblique-65" x="252.294922"/>
     <use xlink:href="#DejaVuSans-Oblique-72" x="313.818359"/>
     <use xlink:href="#DejaVuSans-Oblique-20" x="354.931641"/>
     <use xlink:href="#DejaVuSans-Oblique-33" x="386.71875"/>
    </g>
   </g>
   <g id="text_6">
    <!-- 13.75% -->
    <g transform="translate(243.565393 311.341095)scale(0.07 -0.07)">
     <defs>
      <path id="DejaVuSans-BoldOblique-33" d="M 3022 2516 
Q 3375 2434 3572 2187 
Q 3769 1941 3769 1581 
Q 3769 806 3155 357 
Q 2541 -91 1466 -91 
Q 1059 -91 692 -33 
Q 325 25 0 141 
L 178 1069 
Q 456 906 784 817 
Q 1113 728 1441 728 
Q 1969 728 2276 926 
Q 2584 1125 2584 1459 
Q 2584 1738 2350 1877 
Q 2116 2016 1644 2016 
L 1166 2016 
L 1319 2791 
L 1825 2791 
Q 2316 2791 2602 2969 
Q 2888 3147 2888 3450 
Q 2888 3688 2689 3813 
Q 2491 3938 2113 3938 
Q 1847 3938 1534 3869 
Q 1222 3800 884 3669 
L 1056 4550 
Q 1425 4650 1783 4700 
Q 2141 4750 2491 4750 
Q 3281 4750 3679 4487 
Q 4078 4225 4078 3706 
Q 4078 3241 3801 2930 
Q 3525 2619 3022 2516 
z
" transform="scale(0.015625)"/>
      <path id="DejaVuSans-BoldOblique-35" d="M 1131 4666 
L 4122 4666 
L 3950 3781 
L 1919 3781 
L 1778 3059 
Q 1916 3097 2064 3117 
Q 2213 3138 2363 3138 
Q 3078 3138 3481 2811 
Q 3884 2484 3884 1906 
Q 3884 988 3262 448 
Q 2641 -91 1575 -91 
Q 1184 -91 815 -14 
Q 447 63 84 219 
L 269 1166 
Q 616 941 942 834 
Q 1269 728 1606 728 
Q 2100 728 2397 986 
Q 2694 1244 2694 1663 
Q 2694 1963 2469 2139 
Q 2244 2316 1856 2316 
Q 1594 2316 1289 2248 
Q 984 2181 622 2041 
L 1131 4666 
z
" transform="scale(0.015625)"/>
     </defs>
     <use xlink:href="#DejaVuSans-BoldOblique-31"/>
     <use xlink:href="#DejaVuSans-BoldOblique-33" x="69.580078"/>
     <use xlink:href="#DejaVuSans-BoldOblique-2e" x="139.160156"/>
     <use xlink:href="#DejaVuSans-BoldOblique-37" x="177.148438"/>
     <use xlink:href="#DejaVuSans-BoldOblique-35" x="246.728516"/>
     <use xlink:href="#DejaVuSans-BoldOblique-25" x="316.308594"/>
    </g>
   </g>
   <g id="text_7">
    <!-- Cluster 4 -->
    <g transform="translate(360.697535 384.16033)scale(0.07 -0.07)">
     <defs>
      <path id="DejaVuSans-Oblique-34" d="M 2753 4666 
L 3547 4666 
L 2950 1625 
L 3616 1625 
L 3513 1100 
L 2847 1100 
L 2638 0 
L 2009 0 
L 2222 1100 
L 116 1100 
L 238 1709 
L 2753 4666 
z
M 2809 4116 
L 728 1625 
L 2322 1625 
L 2809 4116 
z
" transform="scale(0.015625)"/>
     </defs>
     <use xlink:href="#DejaVuSans-Oblique-43"/>
     <use xlink:href="#DejaVuSans-Oblique-6c" x="69.824219"/>
     <use xlink:href="#DejaVuSans-Oblique-75" x="97.607422"/>
     <use xlink:href="#DejaVuSans-Oblique-73" x="160.986328"/>
     <use xlink:href="#DejaVuSans-Oblique-74" x="213.085938"/>
     <use xlink:href="#DejaVuSans-Oblique-65" x="252.294922"/>
     <use xlink:href="#DejaVuSans-Oblique-72" x="313.818359"/>
     <use xlink:href="#DejaVuSans-Oblique-20" x="354.931641"/>
     <use xlink:href="#DejaVuSans-Oblique-34" x="386.71875"/>
    </g>
   </g>
   <g id="text_8">
    <!-- 11.90% -->
    <g transform="translate(316.631028 312.317896)scale(0.07 -0.07)">
     <defs>
      <path id="DejaVuSans-BoldOblique-39" d="M 263 103 
L 428 966 
Q 700 825 953 758 
Q 1206 691 1459 691 
Q 2041 691 2400 1003 
Q 2759 1316 2834 1881 
Q 2594 1722 2337 1645 
Q 2081 1569 1791 1569 
Q 1219 1569 853 1909 
Q 488 2250 488 2778 
Q 488 3641 1052 4192 
Q 1616 4744 2503 4744 
Q 3300 4744 3736 4292 
Q 4172 3841 4172 3016 
Q 4172 2381 3978 1801 
Q 3784 1222 3431 800 
Q 3056 353 2548 128 
Q 2041 -97 1403 -97 
Q 1106 -97 825 -47 
Q 544 3 263 103 
z
M 2169 2344 
Q 2525 2344 2753 2637 
Q 2981 2931 2981 3391 
Q 2981 3675 2845 3828 
Q 2709 3981 2456 3981 
Q 2103 3981 1870 3690 
Q 1638 3400 1638 2963 
Q 1638 2663 1775 2503 
Q 1913 2344 2169 2344 
z
" transform="scale(0.015625)"/>
     </defs>
     <use xlink:href="#DejaVuSans-BoldOblique-31"/>
     <use xlink:href="#DejaVuSans-BoldOblique-31" x="69.580078"/>
     <use xlink:href="#DejaVuSans-BoldOblique-2e" x="139.160156"/>
     <use xlink:href="#DejaVuSans-BoldOblique-39" x="177.148438"/>
     <use xlink:href="#DejaVuSans-BoldOblique-30" x="246.728516"/>
     <use xlink:href="#DejaVuSans-BoldOblique-25" x="316.308594"/>
    </g>
   </g>
   <g id="text_9">
    <!-- Cluster 5 -->
    <g transform="translate(441.451147 315.447919)scale(0.07 -0.07)">
     <defs>
      <path id="DejaVuSans-Oblique-35" d="M 3719 4666 
L 3622 4141 
L 1691 4141 
L 1466 2988 
Q 1609 3034 1757 3056 
Q 1906 3078 2059 3078 
Q 2706 3078 3081 2731 
Q 3456 2384 3456 1791 
Q 3456 1375 3264 994 
Q 3072 613 2719 325 
Q 2469 125 2108 17 
Q 1747 -91 1319 -91 
Q 1038 -91 744 -41 
Q 450 9 128 109 
L 244 697 
Q 531 556 820 486 
Q 1109 416 1403 416 
Q 2013 416 2411 781 
Q 2809 1147 2809 1697 
Q 2809 2103 2548 2328 
Q 2288 2553 1819 2553 
Q 1572 2553 1305 2495 
Q 1038 2438 756 2322 
L 1209 4666 
L 3719 4666 
z
" transform="scale(0.015625)"/>
     </defs>
     <use xlink:href="#DejaVuSans-Oblique-43"/>
     <use xlink:href="#DejaVuSans-Oblique-6c" x="69.824219"/>
     <use xlink:href="#DejaVuSans-Oblique-75" x="97.607422"/>
     <use xlink:href="#DejaVuSans-Oblique-73" x="160.986328"/>
     <use xlink:href="#DejaVuSans-Oblique-74" x="213.085938"/>
     <use xlink:href="#DejaVuSans-Oblique-65" x="252.294922"/>
     <use xlink:href="#DejaVuSans-Oblique-72" x="313.818359"/>
     <use xlink:href="#DejaVuSans-Oblique-20" x="354.931641"/>
     <use xlink:href="#DejaVuSans-Oblique-35" x="386.71875"/>
    </g>
   </g>
   <g id="text_10">
    <!-- 8.19% -->
    <g transform="translate(363.113687 274.838399)scale(0.07 -0.07)">
     <use xlink:href="#DejaVuSans-BoldOblique-38"/>
     <use xlink:href="#DejaVuSans-BoldOblique-2e" x="69.580078"/>
     <use xlink:href="#DejaVuSans-BoldOblique-31" x="107.568359"/>
     <use xlink:href="#DejaVuSans-BoldOblique-39" x="177.148438"/>
     <use xlink:href="#DejaVuSans-BoldOblique-25" x="246.728516"/>
    </g>
   </g>
   <g id="text_11">
    <!-- Cluster 6 -->
    <g transform="translate(466.238422 238.267647)scale(0.07 -0.07)">
     <defs>
      <path id="DejaVuSans-Oblique-36" d="M 2938 1728 
Q 2938 2125 2734 2354 
Q 2531 2584 2181 2584 
Q 1697 2584 1367 2211 
Q 1038 1838 1038 1288 
Q 1038 875 1239 642 
Q 1441 409 1797 409 
Q 2284 409 2611 792 
Q 2938 1175 2938 1728 
z
M 3788 4556 
L 3681 3981 
Q 3500 4100 3265 4162 
Q 3031 4225 2766 4225 
Q 2119 4225 1726 3819 
Q 1334 3413 1141 2547 
Q 1369 2813 1670 2948 
Q 1972 3084 2322 3084 
Q 2894 3084 3233 2754 
Q 3572 2425 3572 1869 
Q 3572 1413 3405 1020 
Q 3238 628 2919 331 
Q 2700 128 2409 18 
Q 2119 -91 1791 -91 
Q 1147 -91 775 318 
Q 403 728 403 1441 
Q 403 2103 573 2717 
Q 744 3331 1050 3781 
Q 1372 4256 1830 4503 
Q 2288 4750 2841 4750 
Q 3084 4750 3321 4701 
Q 3559 4653 3788 4556 
z
" transform="scale(0.015625)"/>
     </defs>
     <use xlink:href="#DejaVuSans-Oblique-43"/>
     <use xlink:href="#DejaVuSans-Oblique-6c" x="69.824219"/>
     <use xlink:href="#DejaVuSans-Oblique-75" x="97.607422"/>
     <use xlink:href="#DejaVuSans-Oblique-73" x="160.986328"/>
     <use xlink:href="#DejaVuSans-Oblique-74" x="213.085938"/>
     <use xlink:href="#DejaVuSans-Oblique-65" x="252.294922"/>
     <use xlink:href="#DejaVuSans-Oblique-72" x="313.818359"/>
     <use xlink:href="#DejaVuSans-Oblique-20" x="354.931641"/>
     <use xlink:href="#DejaVuSans-Oblique-36" x="386.71875"/>
    </g>
   </g>
   <g id="text_12">
    <!-- 7.06% -->
    <g transform="translate(376.634019 232.740069)scale(0.07 -0.07)">
     <defs>
      <path id="DejaVuSans-BoldOblique-36" d="M 2316 2303 
Q 1959 2303 1731 2009 
Q 1503 1716 1503 1253 
Q 1503 975 1643 820 
Q 1784 666 2034 666 
Q 2388 666 2617 955 
Q 2847 1244 2847 1684 
Q 2847 1984 2709 2143 
Q 2572 2303 2316 2303 
z
M 4225 4544 
L 4056 3681 
Q 3788 3819 3534 3887 
Q 3281 3956 3028 3956 
Q 2447 3956 2087 3643 
Q 1728 3331 1650 2766 
Q 1894 2925 2151 3001 
Q 2409 3078 2700 3078 
Q 3275 3078 3640 2737 
Q 4006 2397 4006 1869 
Q 4006 1006 3442 454 
Q 2878 -97 1991 -97 
Q 1194 -97 756 354 
Q 319 806 319 1631 
Q 319 2269 512 2848 
Q 706 3428 1056 3847 
Q 1431 4294 1942 4519 
Q 2453 4744 3091 4744 
Q 3384 4744 3662 4694 
Q 3941 4644 4225 4544 
z
" transform="scale(0.015625)"/>
     </defs>
     <use xlink:href="#DejaVuSans-BoldOblique-37"/>
     <use xlink:href="#DejaVuSans-BoldOblique-2e" x="69.580078"/>
     <use xlink:href="#DejaVuSans-BoldOblique-30" x="107.568359"/>
     <use xlink:href="#DejaVuSans-BoldOblique-36" x="177.148438"/>
     <use xlink:href="#DejaVuSans-BoldOblique-25" x="246.728516"/>
    </g>
   </g>
   <g id="text_13">
    <!-- Cluster 7 -->
    <g transform="translate(455.503105 165.348524)scale(0.07 -0.07)">
     <defs>
      <path id="DejaVuSans-Oblique-37" d="M 819 4666 
L 4013 4666 
L 3956 4397 
L 1288 0 
L 594 0 
L 3116 4134 
L 716 4134 
L 819 4666 
z
" transform="scale(0.015625)"/>
     </defs>
     <use xlink:href="#DejaVuSans-Oblique-43"/>
     <use xlink:href="#DejaVuSans-Oblique-6c" x="69.824219"/>
     <use xlink:href="#DejaVuSans-Oblique-75" x="97.607422"/>
     <use xlink:href="#DejaVuSans-Oblique-73" x="160.986328"/>
     <use xlink:href="#DejaVuSans-Oblique-74" x="213.085938"/>
     <use xlink:href="#DejaVuSans-Oblique-65" x="252.294922"/>
     <use xlink:href="#DejaVuSans-Oblique-72" x="313.818359"/>
     <use xlink:href="#DejaVuSans-Oblique-20" x="354.931641"/>
     <use xlink:href="#DejaVuSans-Oblique-37" x="386.71875"/>
    </g>
   </g>
   <g id="text_14">
    <!-- 6.78% -->
    <g transform="translate(370.778392 192.966002)scale(0.07 -0.07)">
     <use xlink:href="#DejaVuSans-BoldOblique-36"/>
     <use xlink:href="#DejaVuSans-BoldOblique-2e" x="69.580078"/>
     <use xlink:href="#DejaVuSans-BoldOblique-37" x="107.568359"/>
     <use xlink:href="#DejaVuSans-BoldOblique-38" x="177.148438"/>
     <use xlink:href="#DejaVuSans-BoldOblique-25" x="246.728516"/>
    </g>
   </g>
   <g id="text_15">
    <!-- Cluster 8 -->
    <g transform="translate(417.143859 105.812866)scale(0.07 -0.07)">
     <defs>
      <path id="DejaVuSans-Oblique-38" d="M 2847 1416 
Q 2847 1769 2600 1992 
Q 2353 2216 1953 2216 
Q 1466 2216 1148 1923 
Q 831 1631 831 1184 
Q 831 828 1073 618 
Q 1316 409 1728 409 
Q 2219 409 2533 693 
Q 2847 978 2847 1416 
z
M 3169 3591 
Q 3169 3888 2950 4069 
Q 2731 4250 2369 4250 
Q 1941 4250 1664 4009 
Q 1388 3769 1388 3406 
Q 1388 3094 1605 2903 
Q 1822 2713 2181 2713 
Q 2613 2713 2891 2961 
Q 3169 3209 3169 3591 
z
M 2741 2456 
Q 3094 2322 3281 2050 
Q 3469 1778 3469 1394 
Q 3469 747 2969 328 
Q 2469 -91 1678 -91 
Q 1006 -91 609 239 
Q 213 569 213 1119 
Q 213 1619 553 2008 
Q 894 2397 1441 2503 
Q 1113 2616 941 2852 
Q 769 3088 769 3425 
Q 769 3991 1239 4370 
Q 1709 4750 2431 4750 
Q 3034 4750 3414 4442 
Q 3794 4134 3794 3659 
Q 3794 3247 3511 2923 
Q 3228 2600 2741 2456 
z
" transform="scale(0.015625)"/>
     </defs>
     <use xlink:href="#DejaVuSans-Oblique-43"/>
     <use xlink:href="#DejaVuSans-Oblique-6c" x="69.824219"/>
     <use xlink:href="#DejaVuSans-Oblique-75" x="97.607422"/>
     <use xlink:href="#DejaVuSans-Oblique-73" x="160.986328"/>
     <use xlink:href="#DejaVuSans-Oblique-74" x="213.085938"/>
     <use xlink:href="#DejaVuSans-Oblique-65" x="252.294922"/>
     <use xlink:href="#DejaVuSans-Oblique-72" x="313.818359"/>
     <use xlink:href="#DejaVuSans-Oblique-20" x="354.931641"/>
     <use xlink:href="#DejaVuSans-Oblique-38" x="386.71875"/>
    </g>
   </g>
   <g id="text_16">
    <!-- 6.51% -->
    <g transform="translate(349.855166 160.492007)scale(0.07 -0.07)">
     <use xlink:href="#DejaVuSans-BoldOblique-36"/>
     <use xlink:href="#DejaVuSans-BoldOblique-2e" x="69.580078"/>
     <use xlink:href="#DejaVuSans-BoldOblique-35" x="107.568359"/>
     <use xlink:href="#DejaVuSans-BoldOblique-31" x="177.148438"/>
     <use xlink:href="#DejaVuSans-BoldOblique-25" x="246.728516"/>
    </g>
   </g>
   <g id="text_17">
    <!-- Cluster 9 -->
    <g transform="translate(367.302872 70.929081)scale(0.07 -0.07)">
     <defs>
      <path id="DejaVuSans-Oblique-39" d="M 281 103 
L 397 678 
Q 578 559 809 496 
Q 1041 434 1306 434 
Q 1953 434 2348 843 
Q 2744 1253 2938 2119 
Q 2706 1853 2401 1714 
Q 2097 1575 1747 1575 
Q 1178 1575 842 1904 
Q 506 2234 506 2791 
Q 506 3247 672 3639 
Q 838 4031 1159 4325 
Q 1378 4531 1665 4640 
Q 1953 4750 2278 4750 
Q 2925 4750 3300 4339 
Q 3675 3928 3675 3219 
Q 3675 2559 3501 1943 
Q 3328 1328 3022 878 
Q 2697 403 2240 156 
Q 1784 -91 1228 -91 
Q 988 -91 748 -42 
Q 509 6 281 103 
z
M 1131 2938 
Q 1131 2541 1337 2308 
Q 1544 2075 1894 2075 
Q 2378 2075 2706 2447 
Q 3034 2819 3034 3372 
Q 3034 3784 2831 4017 
Q 2628 4250 2272 4250 
Q 1788 4250 1459 3870 
Q 1131 3491 1131 2938 
z
" transform="scale(0.015625)"/>
     </defs>
     <use xlink:href="#DejaVuSans-Oblique-43"/>
     <use xlink:href="#DejaVuSans-Oblique-6c" x="69.824219"/>
     <use xlink:href="#DejaVuSans-Oblique-75" x="97.607422"/>
     <use xlink:href="#DejaVuSans-Oblique-73" x="160.986328"/>
     <use xlink:href="#DejaVuSans-Oblique-74" x="213.085938"/>
     <use xlink:href="#DejaVuSans-Oblique-65" x="252.294922"/>
     <use xlink:href="#DejaVuSans-Oblique-72" x="313.818359"/>
     <use xlink:href="#DejaVuSans-Oblique-20" x="354.931641"/>
     <use xlink:href="#DejaVuSans-Oblique-39" x="386.71875"/>
    </g>
   </g>
   <g id="text_18">
    <!-- 4.88% -->
    <g transform="translate(322.669174 141.464487)scale(0.07 -0.07)">
     <use xlink:href="#DejaVuSans-BoldOblique-34"/>
     <use xlink:href="#DejaVuSans-BoldOblique-2e" x="69.580078"/>
     <use xlink:href="#DejaVuSans-BoldOblique-38" x="107.568359"/>
     <use xlink:href="#DejaVuSans-BoldOblique-38" x="177.148438"/>
     <use xlink:href="#DejaVuSans-BoldOblique-25" x="246.728516"/>
    </g>
   </g>
   <g id="text_19">
    <!-- Cluster 10 -->
    <g transform="translate(319.51994 56.908487)scale(0.07 -0.07)">
     <defs>
      <path id="DejaVuSans-Oblique-30" d="M 2444 4750 
Q 3078 4750 3414 4328 
Q 3750 3906 3750 3116 
Q 3750 2516 3592 1923 
Q 3434 1331 3150 863 
Q 2859 394 2467 151 
Q 2075 -91 1600 -91 
Q 988 -91 653 334 
Q 319 759 319 1544 
Q 319 2138 480 2733 
Q 641 3328 928 3794 
Q 1216 4263 1602 4506 
Q 1988 4750 2444 4750 
z
M 2406 4250 
Q 2169 4250 1955 4123 
Q 1741 3997 1569 3750 
Q 1281 3338 1111 2720 
Q 941 2103 941 1453 
Q 941 938 1123 673 
Q 1306 409 1663 409 
Q 1913 409 2125 536 
Q 2338 663 2509 909 
Q 2794 1319 2961 1936 
Q 3128 2553 3128 3206 
Q 3128 3722 2945 3986 
Q 2763 4250 2406 4250 
z
" transform="scale(0.015625)"/>
     </defs>
     <use xlink:href="#DejaVuSans-Oblique-43"/>
     <use xlink:href="#DejaVuSans-Oblique-6c" x="69.824219"/>
     <use xlink:href="#DejaVuSans-Oblique-75" x="97.607422"/>
     <use xlink:href="#DejaVuSans-Oblique-73" x="160.986328"/>
     <use xlink:href="#DejaVuSans-Oblique-74" x="213.085938"/>
     <use xlink:href="#DejaVuSans-Oblique-65" x="252.294922"/>
     <use xlink:href="#DejaVuSans-Oblique-72" x="313.818359"/>
     <use xlink:href="#DejaVuSans-Oblique-20" x="354.931641"/>
     <use xlink:href="#DejaVuSans-Oblique-31" x="386.71875"/>
     <use xlink:href="#DejaVuSans-Oblique-30" x="450.341797"/>
    </g>
   </g>
   <g id="text_20">
    <!-- 4.43% -->
    <g transform="translate(296.605756 133.816891)scale(0.07 -0.07)">
     <use xlink:href="#DejaVuSans-BoldOblique-34"/>
     <use xlink:href="#DejaVuSans-BoldOblique-2e" x="69.580078"/>
     <use xlink:href="#DejaVuSans-BoldOblique-34" x="107.568359"/>
     <use xlink:href="#DejaVuSans-BoldOblique-33" x="177.148438"/>
     <use xlink:href="#DejaVuSans-BoldOblique-25" x="246.728516"/>
    </g>
   </g>
   <g id="text_21">
    <!-- Top 10 Most Frequent Clusters -->
    <g transform="translate(173.2275 18.3088)scale(0.16 -0.16)">
     <defs>
      <path id="DejaVuSans-Oblique-54" d="M 378 4666 
L 4325 4666 
L 4225 4134 
L 2559 4134 
L 1759 0 
L 1125 0 
L 1925 4134 
L 275 4134 
L 378 4666 
z
" transform="scale(0.015625)"/>
      <path id="DejaVuSans-Oblique-6f" d="M 1625 -91 
Q 1009 -91 651 289 
Q 294 669 294 1325 
Q 294 1706 417 2101 
Q 541 2497 738 2766 
Q 1047 3184 1428 3384 
Q 1809 3584 2291 3584 
Q 2888 3584 3255 3212 
Q 3622 2841 3622 2241 
Q 3622 1825 3500 1412 
Q 3378 1000 3181 728 
Q 2875 309 2494 109 
Q 2113 -91 1625 -91 
z
M 891 1344 
Q 891 869 1089 633 
Q 1288 397 1691 397 
Q 2269 397 2648 901 
Q 3028 1406 3028 2181 
Q 3028 2634 2825 2865 
Q 2622 3097 2228 3097 
Q 1903 3097 1650 2945 
Q 1397 2794 1197 2484 
Q 1050 2253 970 1956 
Q 891 1659 891 1344 
z
" transform="scale(0.015625)"/>
      <path id="DejaVuSans-Oblique-70" d="M 3175 2156 
Q 3175 2616 2975 2859 
Q 2775 3103 2400 3103 
Q 2144 3103 1911 2972 
Q 1678 2841 1497 2591 
Q 1319 2344 1212 1994 
Q 1106 1644 1106 1300 
Q 1106 863 1306 627 
Q 1506 391 1875 391 
Q 2147 391 2380 519 
Q 2613 647 2778 891 
Q 2956 1147 3065 1494 
Q 3175 1841 3175 2156 
z
M 1394 2969 
Q 1625 3272 1939 3428 
Q 2253 3584 2638 3584 
Q 3175 3584 3472 3232 
Q 3769 2881 3769 2247 
Q 3769 1728 3584 1258 
Q 3400 788 3053 416 
Q 2822 169 2531 39 
Q 2241 -91 1919 -91 
Q 1547 -91 1294 64 
Q 1041 219 916 525 
L 556 -1331 
L -19 -1331 
L 922 3500 
L 1497 3500 
L 1394 2969 
z
" transform="scale(0.015625)"/>
      <path id="DejaVuSans-Oblique-4d" d="M 1081 4666 
L 2028 4666 
L 2572 1522 
L 4378 4666 
L 5350 4666 
L 4441 0 
L 3828 0 
L 4622 4091 
L 2791 897 
L 2175 897 
L 1581 4103 
L 788 0 
L 172 0 
L 1081 4666 
z
" transform="scale(0.015625)"/>
      <path id="DejaVuSans-Oblique-46" d="M 1081 4666 
L 3756 4666 
L 3653 4134 
L 1606 4134 
L 1338 2759 
L 3188 2759 
L 3084 2228 
L 1234 2228 
L 800 0 
L 172 0 
L 1081 4666 
z
" transform="scale(0.015625)"/>
      <path id="DejaVuSans-Oblique-71" d="M 2669 525 
Q 2438 222 2123 65 
Q 1809 -91 1428 -91 
Q 897 -91 595 267 
Q 294 625 294 1253 
Q 294 1759 480 2231 
Q 666 2703 1013 3078 
Q 1238 3322 1530 3453 
Q 1822 3584 2144 3584 
Q 2531 3584 2781 3431 
Q 3031 3278 3144 2969 
L 3244 3494 
L 3822 3494 
L 2888 -1319 
L 2309 -1319 
L 2669 525 
z
M 891 1338 
Q 891 875 1084 633 
Q 1278 391 1644 391 
Q 2188 391 2572 911 
Q 2956 1431 2956 2175 
Q 2956 2625 2757 2864 
Q 2559 3103 2188 3103 
Q 1916 3103 1684 2976 
Q 1453 2850 1281 2606 
Q 1100 2350 995 2006 
Q 891 1663 891 1338 
z
" transform="scale(0.015625)"/>
      <path id="DejaVuSans-Oblique-6e" d="M 3566 2113 
L 3156 0 
L 2578 0 
L 2988 2091 
Q 3016 2238 3031 2350 
Q 3047 2463 3047 2528 
Q 3047 2791 2881 2937 
Q 2716 3084 2419 3084 
Q 1956 3084 1622 2776 
Q 1288 2469 1184 1941 
L 800 0 
L 225 0 
L 903 3500 
L 1478 3500 
L 1363 2950 
Q 1603 3253 1940 3418 
Q 2278 3584 2650 3584 
Q 3113 3584 3367 3334 
Q 3622 3084 3622 2631 
Q 3622 2519 3608 2391 
Q 3594 2263 3566 2113 
z
" transform="scale(0.015625)"/>
     </defs>
     <use xlink:href="#DejaVuSans-Oblique-54"/>
     <use xlink:href="#DejaVuSans-Oblique-6f" x="48.708984"/>
     <use xlink:href="#DejaVuSans-Oblique-70" x="109.890625"/>
     <use xlink:href="#DejaVuSans-Oblique-20" x="173.367188"/>
     <use xlink:href="#DejaVuSans-Oblique-31" x="205.154297"/>
     <use xlink:href="#DejaVuSans-Oblique-30" x="268.777344"/>
     <use xlink:href="#DejaVuSans-Oblique-20" x="332.400391"/>
     <use xlink:href="#DejaVuSans-Oblique-4d" x="364.1875"/>
     <use xlink:href="#DejaVuSans-Oblique-6f" x="450.466797"/>
     <use xlink:href="#DejaVuSans-Oblique-73" x="511.648438"/>
     <use xlink:href="#DejaVuSans-Oblique-74" x="563.748047"/>
     <use xlink:href="#DejaVuSans-Oblique-20" x="602.957031"/>
     <use xlink:href="#DejaVuSans-Oblique-46" x="634.744141"/>
     <use xlink:href="#DejaVuSans-Oblique-72" x="692.263672"/>
     <use xlink:href="#DejaVuSans-Oblique-65" x="733.376953"/>
     <use xlink:href="#DejaVuSans-Oblique-71" x="794.900391"/>
     <use xlink:href="#DejaVuSans-Oblique-75" x="858.376953"/>
     <use xlink:href="#DejaVuSans-Oblique-65" x="921.755859"/>
     <use xlink:href="#DejaVuSans-Oblique-6e" x="983.279297"/>
     <use xlink:href="#DejaVuSans-Oblique-74" x="1046.658203"/>
     <use xlink:href="#DejaVuSans-Oblique-20" x="1085.867188"/>
     <use xlink:href="#DejaVuSans-Oblique-43" x="1117.654297"/>
     <use xlink:href="#DejaVuSans-Oblique-6c" x="1187.478516"/>
     <use xlink:href="#DejaVuSans-Oblique-75" x="1215.261719"/>
     <use xlink:href="#DejaVuSans-Oblique-73" x="1278.640625"/>
     <use xlink:href="#DejaVuSans-Oblique-74" x="1330.740234"/>
     <use xlink:href="#DejaVuSans-Oblique-65" x="1369.949219"/>
     <use xlink:href="#DejaVuSans-Oblique-72" x="1431.472656"/>
     <use xlink:href="#DejaVuSans-Oblique-73" x="1472.585938"/>
    </g>
   </g>
  </g>
 </g>
</svg>
